# xmcd
#
# Track frame offsets:
# 150
# 19540
# 33468
# 51401
# 69037
# 88451
# 102224
# 120644
# 137879
# 155715
# 173684
# 191007
# 206944
# 227223
# 245530
# 257701
# 278821
# 295000
# 310620
# 329338
#
# Disc length: 4589 seconds
#
#
# Revision: 0
# Processed by: cddbd v1.5.2PL0 Copyright (c) Steve Scherf et al.
# Submitted via: FreeRIP 2.944 
#
DISCID=2611eb14
DTITLE=Various Artist - Acoustic Hour
DYEAR=2015
DGENRE=acoustic
TTITLE0=James Blunt  Goodbye My Lover
TTITLE1=The Common Linets  Calm After The Storm
TTITLE2=Philipp Dittberner u Marv  Wolke 4
TTITLE3=Gregor Meyle  Keine ist wie du
TTITLE4=Coldplay  Magic
TTITLE5=Alle Farben feat. Graham Candy  She Moves (Far Away)
TTITLE6=Tom Odell  Another Love
TTITLE7=James Morrison  I Won't Let You Go
TTITLE8=Nate Ruess  Nothing Without Love
TTITLE9=Matt Simons  Catch and Release
TTITLE10=Tina Dico  No Time To Sleep
TTITLE11=Damien Rice  I Don't Want To Change You
TTITLE12=Sarah McLachlan  Angel
TTITLE13=Jason Mraz  I'm Yours
TTITLE14=Ben Harper and Ellen Harper  A House Is A Home
TTITLE15=John Newman  Losing Sleep
TTITLE16=Rumer  Slow
TTITLE17=James Arthur  Impossible
TTITLE18=John Mayer  Your Body Is A Wonderland
TTITLE19=Bruno Mars  Count On Me
EXTD=
EXTT0=
EXTT1=
EXTT2=
EXTT3=
EXTT4=
EXTT5=
EXTT6=
EXTT7=
EXTT8=
EXTT9=
EXTT10=
EXTT11=
EXTT12=
EXTT13=
EXTT14=
EXTT15=
EXTT16=
EXTT17=
EXTT18=
EXTT19=
PLAYORDER=
